<svg xmlns="http://www.w3.org/2000/svg" width="192" height="192" viewBox="0 0 192 192" role="img" aria-labelledby="title desc">
  <title id="title">SULUAN logo placeholder</title>
  <desc id="desc">A shield and research network placeholder mark for the SULUAN prototype.</desc>
  <rect width="192" height="192" rx="32" fill="#12312b"/>
  <path d="M96 25 151 48v38c0 38-22 68-55 82-33-14-55-44-55-82V48l55-23Z" fill="#f6f7f4"/>
  <path d="M96 38 139 56v31c0 29-17 53-43 65-26-12-43-36-43-65V56l43-18Z" fill="#1f6f5b"/>
  <circle cx="77" cy="79" r="9" fill="#f5c84c"/>
  <circle cx="116" cy="76" r="9" fill="#f5c84c"/>
  <circle cx="96" cy="117" r="10" fill="#f5c84c"/>
  <path d="M83 82 109 77M81 87l12 23M111 84l-11 26" stroke="#f6f7f4" stroke-width="6" stroke-linecap="round"/>
  <text x="96" y="178" text-anchor="middle" font-family="Arial, sans-serif" font-size="20" font-weight="700" fill="#f5c84c">SULUAN</text>
</svg>
